<mxfile host="app.diagrams.net" modified="2021-10-14T12:52:26.572Z" agent="5.0 (Macintosh; Intel Mac OS X 10_15_7) AppleWebKit/537.36 (KHTML, like Gecko) Chrome/94.0.4606.61 Safari/537.36" etag="tNnS_o0ubWvDylApPkG1" version="15.4.3" type="github">
  <diagram id="g3s3_oMSda1qEZBIPDO_" name="Page-1">
    <mxGraphModel dx="1426" dy="670" grid="1" gridSize="10" guides="1" tooltips="1" connect="1" arrows="1" fold="1" page="1" pageScale="1" pageWidth="827" pageHeight="1169" math="0" shadow="0">
      <root>
        <mxCell id="0" />
        <mxCell id="1" parent="0" />
        <mxCell id="Movc8tXXRkuTVprkoED4-1" value="" style="rounded=0;whiteSpace=wrap;html=1;fontFamily=Noto Sans Mono;fontSource=https%3A%2F%2Ffonts.googleapis.com%2Fcss%3Ffamily%3DNoto%2BSans%2BMono;fontSize=12;strokeWidth=1;align=center;verticalAlign=middle;fillColor=#f5f5f5;strokeColor=#666666;fontColor=#333333;dashed=1;" vertex="1" parent="1">
          <mxGeometry x="42" y="845" width="411" height="40" as="geometry" />
        </mxCell>
        <mxCell id="Movc8tXXRkuTVprkoED4-2" style="edgeStyle=orthogonalEdgeStyle;rounded=0;orthogonalLoop=1;jettySize=auto;html=1;entryX=0.5;entryY=1;entryDx=0;entryDy=0;fontFamily=Noto Sans Mono;fontSource=https%3A%2F%2Ffonts.googleapis.com%2Fcss%3Ffamily%3DNoto%2BSans%2BMono;endArrow=block;endFill=1;strokeWidth=2;" edge="1" parent="1" source="Movc8tXXRkuTVprkoED4-8" target="Movc8tXXRkuTVprkoED4-9">
          <mxGeometry relative="1" as="geometry">
            <Array as="points">
              <mxPoint x="70" y="160" />
              <mxPoint x="300" y="160" />
            </Array>
          </mxGeometry>
        </mxCell>
        <mxCell id="Movc8tXXRkuTVprkoED4-3" style="edgeStyle=orthogonalEdgeStyle;rounded=0;orthogonalLoop=1;jettySize=auto;html=1;entryX=0.5;entryY=1;entryDx=0;entryDy=0;fontFamily=Noto Sans Mono;fontSource=https%3A%2F%2Ffonts.googleapis.com%2Fcss%3Ffamily%3DNoto%2BSans%2BMono;endArrow=block;endFill=1;strokeWidth=1;exitX=0.5;exitY=0;exitDx=0;exitDy=0;jumpStyle=none;jumpSize=10;dashed=1;" edge="1" parent="1" source="Movc8tXXRkuTVprkoED4-8" target="Movc8tXXRkuTVprkoED4-10">
          <mxGeometry relative="1" as="geometry">
            <Array as="points">
              <mxPoint x="90" y="200" />
              <mxPoint x="90" y="180" />
              <mxPoint x="622" y="180" />
            </Array>
          </mxGeometry>
        </mxCell>
        <mxCell id="Movc8tXXRkuTVprkoED4-4" style="edgeStyle=orthogonalEdgeStyle;rounded=0;jumpStyle=none;jumpSize=10;orthogonalLoop=1;jettySize=auto;html=1;exitX=0.75;exitY=1;exitDx=0;exitDy=0;entryX=0.5;entryY=0;entryDx=0;entryDy=0;entryPerimeter=0;fontFamily=Noto Sans Mono;fontSource=https%3A%2F%2Ffonts.googleapis.com%2Fcss%3Ffamily%3DNoto%2BSans%2BMono;fontSize=12;endArrow=block;endFill=1;strokeWidth=2;fillColor=#ffe6cc;strokeColor=#d79b00;" edge="1" parent="1" source="Movc8tXXRkuTVprkoED4-8" target="Movc8tXXRkuTVprkoED4-23">
          <mxGeometry relative="1" as="geometry">
            <Array as="points">
              <mxPoint x="100" y="360" />
              <mxPoint x="439" y="360" />
              <mxPoint x="439" y="440" />
            </Array>
          </mxGeometry>
        </mxCell>
        <mxCell id="Movc8tXXRkuTVprkoED4-5" value="stylesheet" style="edgeLabel;html=1;align=center;verticalAlign=middle;resizable=0;points=[];fontSize=12;fontFamily=Noto Sans Mono;" vertex="1" connectable="0" parent="Movc8tXXRkuTVprkoED4-4">
          <mxGeometry x="0.1818" relative="1" as="geometry">
            <mxPoint x="-21" y="-2" as="offset" />
          </mxGeometry>
        </mxCell>
        <mxCell id="Movc8tXXRkuTVprkoED4-6" style="edgeStyle=orthogonalEdgeStyle;rounded=0;jumpStyle=none;jumpSize=10;orthogonalLoop=1;jettySize=auto;html=1;exitX=0.25;exitY=1;exitDx=0;exitDy=0;entryX=0.5;entryY=0;entryDx=0;entryDy=0;entryPerimeter=0;fontFamily=Noto Sans Mono;fontSource=https%3A%2F%2Ffonts.googleapis.com%2Fcss%3Ffamily%3DNoto%2BSans%2BMono;fontSize=14;endArrow=block;endFill=1;strokeWidth=2;" edge="1" parent="1" source="Movc8tXXRkuTVprkoED4-8" target="Movc8tXXRkuTVprkoED4-21">
          <mxGeometry relative="1" as="geometry">
            <Array as="points">
              <mxPoint x="40" y="400" />
              <mxPoint x="184" y="400" />
            </Array>
          </mxGeometry>
        </mxCell>
        <mxCell id="Movc8tXXRkuTVprkoED4-7" value="&lt;font style=&quot;font-size: 12px&quot;&gt;script&lt;/font&gt;" style="edgeLabel;html=1;align=center;verticalAlign=middle;resizable=0;points=[];fontSize=14;fontFamily=Noto Sans Mono;" vertex="1" connectable="0" parent="Movc8tXXRkuTVprkoED4-6">
          <mxGeometry x="0.6358" y="3" relative="1" as="geometry">
            <mxPoint x="-57" as="offset" />
          </mxGeometry>
        </mxCell>
        <mxCell id="Movc8tXXRkuTVprkoED4-8" value="rails-bundle" style="rounded=0;whiteSpace=wrap;html=1;strokeWidth=2;shadow=0;glass=0;sketch=0;fontFamily=Noto Sans Mono;fontSize=15;fontSource=https%3A%2F%2Ffonts.googleapis.com%2Fcss%3Ffamily%3DNoto%2BSans%2BMono;fillColor=#f8cecc;strokeColor=#b85450;" vertex="1" parent="1">
          <mxGeometry x="10" y="200" width="120" height="60" as="geometry" />
        </mxCell>
        <mxCell id="Movc8tXXRkuTVprkoED4-9" value="common" style="rounded=1;whiteSpace=wrap;html=1;strokeWidth=2;shadow=0;glass=0;sketch=0;fontFamily=Noto Sans Mono;fontSize=15;fontSource=https%3A%2F%2Ffonts.googleapis.com%2Fcss%3Ffamily%3DNoto%2BSans%2BMono;fillColor=#e1d5e7;strokeColor=#9673a6;" vertex="1" parent="1">
          <mxGeometry x="240" y="60" width="120" height="60" as="geometry" />
        </mxCell>
        <mxCell id="Movc8tXXRkuTVprkoED4-10" value="public_path" style="rounded=1;whiteSpace=wrap;html=1;strokeWidth=2;shadow=0;glass=0;sketch=0;fontFamily=Noto Sans Mono;fontSize=15;fontSource=https%3A%2F%2Ffonts.googleapis.com%2Fcss%3Ffamily%3DNoto%2BSans%2BMono;fillColor=#e1d5e7;strokeColor=#9673a6;" vertex="1" parent="1">
          <mxGeometry x="562" y="60" width="120" height="60" as="geometry" />
        </mxCell>
        <mxCell id="Movc8tXXRkuTVprkoED4-11" style="edgeStyle=orthogonalEdgeStyle;rounded=0;orthogonalLoop=1;jettySize=auto;html=1;entryX=0.5;entryY=1;entryDx=0;entryDy=0;fontFamily=Noto Sans Mono;fontSource=https%3A%2F%2Ffonts.googleapis.com%2Fcss%3Ffamily%3DNoto%2BSans%2BMono;endArrow=block;endFill=1;exitX=0.5;exitY=0;exitDx=0;exitDy=0;strokeWidth=2;" edge="1" parent="1" source="Movc8tXXRkuTVprkoED4-14" target="Movc8tXXRkuTVprkoED4-9">
          <mxGeometry relative="1" as="geometry">
            <Array as="points">
              <mxPoint x="540" y="160" />
              <mxPoint x="300" y="160" />
            </Array>
          </mxGeometry>
        </mxCell>
        <mxCell id="Movc8tXXRkuTVprkoED4-12" style="edgeStyle=orthogonalEdgeStyle;rounded=0;orthogonalLoop=1;jettySize=auto;html=1;exitX=0.75;exitY=0;exitDx=0;exitDy=0;fontFamily=Noto Sans Mono;fontSource=https%3A%2F%2Ffonts.googleapis.com%2Fcss%3Ffamily%3DNoto%2BSans%2BMono;endArrow=none;endFill=0;strokeWidth=1;dashed=1;jumpStyle=none;" edge="1" parent="1" source="Movc8tXXRkuTVprkoED4-14">
          <mxGeometry relative="1" as="geometry">
            <mxPoint x="570" y="180" as="targetPoint" />
          </mxGeometry>
        </mxCell>
        <mxCell id="Movc8tXXRkuTVprkoED4-13" style="edgeStyle=orthogonalEdgeStyle;rounded=0;jumpStyle=none;jumpSize=10;orthogonalLoop=1;jettySize=auto;html=1;entryX=0.5;entryY=0;entryDx=0;entryDy=0;entryPerimeter=0;fontFamily=Noto Sans Mono;fontSource=https%3A%2F%2Ffonts.googleapis.com%2Fcss%3Ffamily%3DNoto%2BSans%2BMono;fontSize=12;endArrow=block;endFill=1;strokeWidth=2;exitX=0.5;exitY=1;exitDx=0;exitDy=0;fillColor=#f8cecc;strokeColor=#b85450;sketch=0;shadow=0;flowAnimation=0;orthogonal=0;comic=0;fixDash=0;noJump=0;" edge="1" parent="1" source="Movc8tXXRkuTVprkoED4-14" target="Movc8tXXRkuTVprkoED4-28">
          <mxGeometry relative="1" as="geometry">
            <Array as="points">
              <mxPoint x="540" y="300" />
              <mxPoint x="660" y="300" />
            </Array>
          </mxGeometry>
        </mxCell>
        <mxCell id="Movc8tXXRkuTVprkoED4-14" value="login-bundle" style="rounded=0;whiteSpace=wrap;html=1;strokeWidth=2;shadow=0;glass=0;sketch=0;fontFamily=Noto Sans Mono;fontSize=15;fontSource=https%3A%2F%2Ffonts.googleapis.com%2Fcss%3Ffamily%3DNoto%2BSans%2BMono;fillColor=#f8cecc;strokeColor=#b85450;" vertex="1" parent="1">
          <mxGeometry x="480" y="200" width="120" height="60" as="geometry" />
        </mxCell>
        <mxCell id="Movc8tXXRkuTVprkoED4-15" style="edgeStyle=orthogonalEdgeStyle;rounded=0;jumpStyle=none;jumpSize=10;orthogonalLoop=1;jettySize=auto;html=1;entryX=0.5;entryY=0;entryDx=0;entryDy=0;entryPerimeter=0;fontFamily=Noto Sans Mono;fontSource=https%3A%2F%2Ffonts.googleapis.com%2Fcss%3Ffamily%3DNoto%2BSans%2BMono;fontSize=12;endArrow=block;endFill=1;strokeWidth=2;fillColor=#f8cecc;strokeColor=#b85450;" edge="1" parent="1" source="Movc8tXXRkuTVprkoED4-18" target="Movc8tXXRkuTVprkoED4-27">
          <mxGeometry relative="1" as="geometry">
            <Array as="points">
              <mxPoint x="730" y="420" />
              <mxPoint x="760" y="420" />
            </Array>
          </mxGeometry>
        </mxCell>
        <mxCell id="Movc8tXXRkuTVprkoED4-16" value="script &amp;amp; stylesheet" style="edgeLabel;html=1;align=center;verticalAlign=middle;resizable=0;points=[];fontSize=12;fontFamily=Noto Sans Mono;" vertex="1" connectable="0" parent="Movc8tXXRkuTVprkoED4-15">
          <mxGeometry x="-0.5982" y="2" relative="1" as="geometry">
            <mxPoint x="-38" y="84" as="offset" />
          </mxGeometry>
        </mxCell>
        <mxCell id="Movc8tXXRkuTVprkoED4-17" style="edgeStyle=orthogonalEdgeStyle;rounded=0;jumpSize=10;orthogonalLoop=1;jettySize=auto;html=1;dashed=1;fontFamily=Noto Sans Mono;fontSource=https%3A%2F%2Ffonts.googleapis.com%2Fcss%3Ffamily%3DNoto%2BSans%2BMono;fontSize=15;endArrow=none;endFill=0;strokeWidth=1;" edge="1" parent="1" source="Movc8tXXRkuTVprkoED4-18">
          <mxGeometry relative="1" as="geometry">
            <mxPoint x="620" y="180" as="targetPoint" />
          </mxGeometry>
        </mxCell>
        <mxCell id="Movc8tXXRkuTVprkoED4-18" value="admin-application-bundle" style="rounded=0;whiteSpace=wrap;html=1;strokeWidth=2;shadow=0;glass=0;sketch=0;fontFamily=Noto Sans Mono;fontSize=15;fontSource=https%3A%2F%2Ffonts.googleapis.com%2Fcss%3Ffamily%3DNoto%2BSans%2BMono;fillColor=#f8cecc;strokeColor=#b85450;" vertex="1" parent="1">
          <mxGeometry x="610" y="200" width="222" height="60" as="geometry" />
        </mxCell>
        <mxCell id="Movc8tXXRkuTVprkoED4-19" style="edgeStyle=orthogonalEdgeStyle;rounded=0;comic=0;sketch=0;jumpStyle=none;jumpSize=10;orthogonalLoop=1;jettySize=auto;html=1;shadow=0;fontFamily=Noto Sans Mono;fontSource=https%3A%2F%2Ffonts.googleapis.com%2Fcss%3Ffamily%3DNoto%2BSans%2BMono;fontSize=12;startArrow=none;endArrow=block;endFill=1;strokeWidth=2;strokeColor=#b85450;fillColor=#f8cecc;" edge="1" parent="1" source="Movc8tXXRkuTVprkoED4-55" target="Movc8tXXRkuTVprkoED4-33">
          <mxGeometry relative="1" as="geometry">
            <Array as="points">
              <mxPoint x="240" y="330" />
              <mxPoint x="570" y="330" />
            </Array>
          </mxGeometry>
        </mxCell>
        <mxCell id="Movc8tXXRkuTVprkoED4-20" value="&lt;font style=&quot;font-size: 12px&quot;&gt;script &amp;amp; stylesheet&lt;/font&gt;" style="edgeLabel;html=1;align=center;verticalAlign=middle;resizable=0;points=[];fontSize=12;fontFamily=Noto Sans Mono;" vertex="1" connectable="0" parent="Movc8tXXRkuTVprkoED4-19">
          <mxGeometry x="0.1242" y="1" relative="1" as="geometry">
            <mxPoint x="-105" y="-8" as="offset" />
          </mxGeometry>
        </mxCell>
        <mxCell id="Movc8tXXRkuTVprkoED4-21" value="&lt;font style=&quot;font-size: 15px;&quot;&gt;application&lt;/font&gt;" style="shape=note;whiteSpace=wrap;html=1;backgroundOutline=1;darkOpacity=0.05;rounded=0;fontFamily=Noto Sans Mono;fontSource=https%3A%2F%2Ffonts.googleapis.com%2Fcss%3Ffamily%3DNoto%2BSans%2BMono;strokeWidth=2;fillColor=#d5e8d4;strokeColor=#82b366;fontSize=15;" vertex="1" parent="1">
          <mxGeometry x="74" y="440" width="220" height="120" as="geometry" />
        </mxCell>
        <mxCell id="Movc8tXXRkuTVprkoED4-22" style="edgeStyle=orthogonalEdgeStyle;rounded=0;jumpStyle=none;jumpSize=10;orthogonalLoop=1;jettySize=auto;html=1;fontFamily=Noto Sans Mono;fontSource=https%3A%2F%2Ffonts.googleapis.com%2Fcss%3Ffamily%3DNoto%2BSans%2BMono;fontSize=14;startArrow=none;endArrow=block;endFill=1;strokeWidth=2;" edge="1" parent="1" source="Movc8tXXRkuTVprkoED4-33" target="Movc8tXXRkuTVprkoED4-23">
          <mxGeometry relative="1" as="geometry">
            <Array as="points">
              <mxPoint x="540" y="600" />
              <mxPoint x="470" y="600" />
            </Array>
          </mxGeometry>
        </mxCell>
        <mxCell id="Movc8tXXRkuTVprkoED4-23" value="&lt;font style=&quot;font-size: 15px;&quot;&gt;&lt;font style=&quot;font-size: 15px;&quot;&gt;react_application&lt;/font&gt;&lt;br style=&quot;font-size: 15px;&quot;&gt;&lt;/font&gt;" style="shape=note;whiteSpace=wrap;html=1;backgroundOutline=1;darkOpacity=0.05;rounded=0;fontFamily=Noto Sans Mono;fontSource=https%3A%2F%2Ffonts.googleapis.com%2Fcss%3Ffamily%3DNoto%2BSans%2BMono;strokeWidth=2;fillColor=#d5e8d4;strokeColor=#82b366;fontSize=15;" vertex="1" parent="1">
          <mxGeometry x="328.5" y="440" width="220" height="120" as="geometry" />
        </mxCell>
        <mxCell id="Movc8tXXRkuTVprkoED4-24" value="Re-usable Pack Module" style="rounded=1;whiteSpace=wrap;html=1;fontFamily=Noto Sans Mono;fontSource=https%3A%2F%2Ffonts.googleapis.com%2Fcss%3Ffamily%3DNoto%2BSans%2BMono;fontSize=10;strokeWidth=1;fillColor=#e1d5e7;strokeColor=#9673a6;" vertex="1" parent="1">
          <mxGeometry x="91" y="850.5" width="75" height="25.5" as="geometry" />
        </mxCell>
        <mxCell id="Movc8tXXRkuTVprkoED4-25" value="Pack" style="rounded=0;whiteSpace=wrap;html=1;fontFamily=Noto Sans Mono;fontSource=https%3A%2F%2Ffonts.googleapis.com%2Fcss%3Ffamily%3DNoto%2BSans%2BMono;fontSize=10;strokeWidth=1;fillColor=#f8cecc;strokeColor=#b85450;" vertex="1" parent="1">
          <mxGeometry x="47" y="850.5" width="39" height="16.5" as="geometry" />
        </mxCell>
        <mxCell id="Movc8tXXRkuTVprkoED4-26" value="&lt;font style=&quot;font-size: 10px;&quot;&gt;layout&lt;/font&gt;" style="shape=note;whiteSpace=wrap;html=1;backgroundOutline=1;darkOpacity=0.05;rounded=0;fontFamily=Noto Sans Mono;fontSource=https%3A%2F%2Ffonts.googleapis.com%2Fcss%3Ffamily%3DNoto%2BSans%2BMono;strokeWidth=1;fillColor=#d5e8d4;strokeColor=#82b366;fontSize=10;verticalAlign=bottom;size=15;" vertex="1" parent="1">
          <mxGeometry x="171" y="851" width="44" height="27.5" as="geometry" />
        </mxCell>
        <mxCell id="Movc8tXXRkuTVprkoED4-27" value="&lt;font style=&quot;font-size: 15px;&quot;&gt;admin&lt;/font&gt;" style="shape=note;whiteSpace=wrap;html=1;backgroundOutline=1;darkOpacity=0.05;rounded=0;fontFamily=Noto Sans Mono;fontSource=https%3A%2F%2Ffonts.googleapis.com%2Fcss%3Ffamily%3DNoto%2BSans%2BMono;strokeWidth=2;fillColor=#d5e8d4;strokeColor=#82b366;fontSize=15;" vertex="1" parent="1">
          <mxGeometry x="720" y="440" width="80" height="90" as="geometry" />
        </mxCell>
        <mxCell id="Movc8tXXRkuTVprkoED4-28" value="&lt;font style=&quot;font-size: 15px;&quot;&gt;login&lt;/font&gt;" style="shape=note;whiteSpace=wrap;html=1;backgroundOutline=1;darkOpacity=0.05;rounded=0;fontFamily=Noto Sans Mono;fontSource=https%3A%2F%2Ffonts.googleapis.com%2Fcss%3Ffamily%3DNoto%2BSans%2BMono;strokeWidth=2;fillColor=#d5e8d4;strokeColor=#82b366;fontSize=15;" vertex="1" parent="1">
          <mxGeometry x="620" y="440" width="80" height="90" as="geometry" />
        </mxCell>
        <mxCell id="Movc8tXXRkuTVprkoED4-29" value="&lt;font style=&quot;font-size: 10px;&quot;&gt;view&lt;/font&gt;" style="shape=note;whiteSpace=wrap;html=1;backgroundOutline=1;darkOpacity=0.05;rounded=0;fontFamily=Noto Sans Mono;fontSource=https%3A%2F%2Ffonts.googleapis.com%2Fcss%3Ffamily%3DNoto%2BSans%2BMono;strokeWidth=1;fillColor=#fff2cc;strokeColor=#d6b656;fontSize=10;verticalAlign=bottom;size=15;" vertex="1" parent="1">
          <mxGeometry x="221" y="851" width="31" height="28.5" as="geometry" />
        </mxCell>
        <mxCell id="Movc8tXXRkuTVprkoED4-30" value="" style="edgeStyle=orthogonalEdgeStyle;rounded=0;jumpStyle=none;jumpSize=10;orthogonalLoop=1;jettySize=auto;html=1;fontFamily=Noto Sans Mono;fontSource=https%3A%2F%2Ffonts.googleapis.com%2Fcss%3Ffamily%3DNoto%2BSans%2BMono;fontSize=14;startArrow=none;endArrow=block;endFill=1;strokeWidth=2;exitX=1;exitY=0.5;exitDx=0;exitDy=0;" edge="1" parent="1" source="Movc8tXXRkuTVprkoED4-36" target="Movc8tXXRkuTVprkoED4-33">
          <mxGeometry relative="1" as="geometry">
            <mxPoint x="468" y="690" as="sourcePoint" />
          </mxGeometry>
        </mxCell>
        <mxCell id="Movc8tXXRkuTVprkoED4-31" style="edgeStyle=orthogonalEdgeStyle;rounded=0;jumpStyle=none;jumpSize=10;orthogonalLoop=1;jettySize=auto;html=1;entryX=0;entryY=0.5;entryDx=0;entryDy=0;fontFamily=Noto Sans Mono;fontSource=https%3A%2F%2Ffonts.googleapis.com%2Fcss%3Ffamily%3DNoto%2BSans%2BMono;fontSize=14;endArrow=none;endFill=0;strokeWidth=2;" edge="1" parent="1" source="Movc8tXXRkuTVprkoED4-49" target="Movc8tXXRkuTVprkoED4-36">
          <mxGeometry relative="1" as="geometry">
            <mxPoint x="380" y="690" as="targetPoint" />
          </mxGeometry>
        </mxCell>
        <mxCell id="Movc8tXXRkuTVprkoED4-32" value="&lt;span style=&quot;font-size: 10px;&quot;&gt;Controller&lt;/span&gt;" style="rounded=0;whiteSpace=wrap;html=1;strokeWidth=1;shadow=0;glass=0;sketch=0;fontFamily=Noto Sans Mono;fontSize=10;fontSource=https%3A%2F%2Ffonts.googleapis.com%2Fcss%3Ffamily%3DNoto%2BSans%2BMono;fillColor=#dae8fc;strokeColor=#6c8ebf;verticalAlign=middle;align=center;" vertex="1" parent="1">
          <mxGeometry x="259" y="850.5" width="66" height="16.5" as="geometry" />
        </mxCell>
        <mxCell id="Movc8tXXRkuTVprkoED4-33" value="&lt;font style=&quot;font-size: 15px;&quot;&gt;react/component&lt;/font&gt;" style="shape=note;whiteSpace=wrap;html=1;backgroundOutline=1;darkOpacity=0.05;rounded=0;fontFamily=Noto Sans Mono;fontSource=https%3A%2F%2Ffonts.googleapis.com%2Fcss%3Ffamily%3DNoto%2BSans%2BMono;strokeWidth=2;fillColor=#fff2cc;strokeColor=#d6b656;fontSize=15;" vertex="1" parent="1">
          <mxGeometry x="520" y="640" width="180" height="100" as="geometry" />
        </mxCell>
        <mxCell id="Movc8tXXRkuTVprkoED4-34" value="" style="edgeStyle=orthogonalEdgeStyle;rounded=0;comic=0;sketch=0;jumpStyle=none;jumpSize=10;orthogonalLoop=1;jettySize=auto;html=1;shadow=0;dashed=1;fontFamily=Noto Sans Mono;fontSource=https%3A%2F%2Ffonts.googleapis.com%2Fcss%3Ffamily%3DNoto%2BSans%2BMono;fontSize=12;startArrow=none;startFill=0;endArrow=open;endFill=0;strokeWidth=1;entryX=0.272;entryY=1.006;entryDx=0;entryDy=0;entryPerimeter=0;" edge="1" parent="1" source="Movc8tXXRkuTVprkoED4-36" target="Movc8tXXRkuTVprkoED4-23">
          <mxGeometry relative="1" as="geometry">
            <Array as="points">
              <mxPoint x="388" y="630" />
            </Array>
          </mxGeometry>
        </mxCell>
        <mxCell id="Movc8tXXRkuTVprkoED4-35" value="set layout" style="edgeLabel;html=1;align=center;verticalAlign=middle;resizable=0;points=[];fontSize=12;fontFamily=Noto Sans Mono;" vertex="1" connectable="0" parent="Movc8tXXRkuTVprkoED4-34">
          <mxGeometry x="-0.2391" y="2" relative="1" as="geometry">
            <mxPoint x="2" y="-9" as="offset" />
          </mxGeometry>
        </mxCell>
        <mxCell id="Movc8tXXRkuTVprkoED4-36" value="react_page(&lt;i&gt;feature&lt;/i&gt;)" style="shape=step;perimeter=stepPerimeter;whiteSpace=wrap;html=1;fixedSize=1;rounded=0;fontFamily=Noto Sans Mono;fontSource=https%3A%2F%2Ffonts.googleapis.com%2Fcss%3Ffamily%3DNoto%2BSans%2BMono;fontSize=12;strokeWidth=1;align=center;verticalAlign=middle;size=10;" vertex="1" parent="1">
          <mxGeometry x="328.5" y="670" width="170" height="40" as="geometry" />
        </mxCell>
        <mxCell id="Movc8tXXRkuTVprkoED4-37" style="edgeStyle=orthogonalEdgeStyle;rounded=0;jumpStyle=none;jumpSize=10;orthogonalLoop=1;jettySize=auto;html=1;fontFamily=Noto Sans Mono;fontSource=https%3A%2F%2Ffonts.googleapis.com%2Fcss%3Ffamily%3DNoto%2BSans%2BMono;fontSize=14;startArrow=none;endArrow=none;endFill=0;strokeWidth=2;" edge="1" parent="1" source="Movc8tXXRkuTVprkoED4-38" target="Movc8tXXRkuTVprkoED4-40">
          <mxGeometry relative="1" as="geometry" />
        </mxCell>
        <mxCell id="Movc8tXXRkuTVprkoED4-38" value="&lt;i style=&quot;font-size: 12px;&quot;&gt;old controller&lt;/i&gt;" style="rounded=0;whiteSpace=wrap;html=1;strokeWidth=2;shadow=0;glass=0;sketch=0;fontFamily=Noto Sans Mono;fontSize=12;fontSource=https%3A%2F%2Ffonts.googleapis.com%2Fcss%3Ffamily%3DNoto%2BSans%2BMono;fillColor=#dae8fc;strokeColor=#6c8ebf;" vertex="1" parent="1">
          <mxGeometry x="40" y="780" width="110" height="25" as="geometry" />
        </mxCell>
        <mxCell id="Movc8tXXRkuTVprkoED4-39" value="" style="edgeStyle=orthogonalEdgeStyle;rounded=0;jumpSize=10;orthogonalLoop=1;jettySize=auto;html=1;fontFamily=Noto Sans Mono;fontSource=https%3A%2F%2Ffonts.googleapis.com%2Fcss%3Ffamily%3DNoto%2BSans%2BMono;fontSize=14;endArrow=none;endFill=0;strokeWidth=2;" edge="1" parent="1" source="Movc8tXXRkuTVprkoED4-40" target="Movc8tXXRkuTVprkoED4-42">
          <mxGeometry relative="1" as="geometry" />
        </mxCell>
        <mxCell id="Movc8tXXRkuTVprkoED4-40" value="react_full_page()" style="shape=step;perimeter=stepPerimeter;whiteSpace=wrap;html=1;fixedSize=1;rounded=0;fontFamily=Noto Sans Mono;fontSource=https%3A%2F%2Ffonts.googleapis.com%2Fcss%3Ffamily%3DNoto%2BSans%2BMono;fontSize=10;strokeWidth=1;align=center;verticalAlign=middle;size=10;" vertex="1" parent="1">
          <mxGeometry x="180" y="782.5" width="130" height="20" as="geometry" />
        </mxCell>
        <mxCell id="Movc8tXXRkuTVprkoED4-41" value="" style="edgeStyle=orthogonalEdgeStyle;rounded=0;jumpSize=10;orthogonalLoop=1;jettySize=auto;html=1;fontFamily=Noto Sans Mono;fontSource=https%3A%2F%2Ffonts.googleapis.com%2Fcss%3Ffamily%3DNoto%2BSans%2BMono;fontSize=12;endArrow=block;endFill=1;strokeWidth=2;" edge="1" parent="1" source="Movc8tXXRkuTVprkoED4-42" target="Movc8tXXRkuTVprkoED4-43">
          <mxGeometry relative="1" as="geometry" />
        </mxCell>
        <mxCell id="Movc8tXXRkuTVprkoED4-42" value="react_page(app)" style="shape=step;perimeter=stepPerimeter;whiteSpace=wrap;html=1;fixedSize=1;rounded=0;fontFamily=Noto Sans Mono;fontSource=https%3A%2F%2Ffonts.googleapis.com%2Fcss%3Ffamily%3DNoto%2BSans%2BMono;fontSize=10;strokeWidth=1;align=center;verticalAlign=middle;size=10;" vertex="1" parent="1">
          <mxGeometry x="330" y="782.5" width="130" height="20" as="geometry" />
        </mxCell>
        <mxCell id="Movc8tXXRkuTVprkoED4-43" value="&lt;font style=&quot;font-size: 12px&quot;&gt;react/component&lt;/font&gt;" style="shape=note;whiteSpace=wrap;html=1;backgroundOutline=1;darkOpacity=0.05;rounded=0;fontFamily=Noto Sans Mono;fontSource=https%3A%2F%2Ffonts.googleapis.com%2Fcss%3Ffamily%3DNoto%2BSans%2BMono;strokeWidth=2;fillColor=#fff2cc;strokeColor=#d6b656;size=14;" vertex="1" parent="1">
          <mxGeometry x="490" y="773.75" width="140" height="37.5" as="geometry" />
        </mxCell>
        <mxCell id="Movc8tXXRkuTVprkoED4-44" value="Method Invokation" style="shape=step;perimeter=stepPerimeter;whiteSpace=wrap;html=1;fixedSize=1;rounded=0;fontFamily=Noto Sans Mono;fontSource=https%3A%2F%2Ffonts.googleapis.com%2Fcss%3Ffamily%3DNoto%2BSans%2BMono;fontSize=10;strokeWidth=1;align=center;verticalAlign=middle;size=4.399999999999977;" vertex="1" parent="1">
          <mxGeometry x="332" y="851" width="117" height="18.5" as="geometry" />
        </mxCell>
        <mxCell id="Movc8tXXRkuTVprkoED4-45" style="edgeStyle=orthogonalEdgeStyle;rounded=0;jumpSize=10;orthogonalLoop=1;jettySize=auto;html=1;entryX=0;entryY=0;entryDx=140;entryDy=25.75;entryPerimeter=0;fontFamily=Noto Sans Mono;fontSource=https%3A%2F%2Ffonts.googleapis.com%2Fcss%3Ffamily%3DNoto%2BSans%2BMono;fontSize=12;endArrow=block;endFill=1;strokeWidth=1;fillColor=#f8cecc;strokeColor=#b85450;" edge="1" parent="1" source="Movc8tXXRkuTVprkoED4-48" target="Movc8tXXRkuTVprkoED4-43">
          <mxGeometry relative="1" as="geometry">
            <Array as="points">
              <mxPoint x="410" y="310" />
              <mxPoint x="600" y="310" />
              <mxPoint x="600" y="580" />
              <mxPoint x="770" y="580" />
              <mxPoint x="770" y="800" />
            </Array>
          </mxGeometry>
        </mxCell>
        <mxCell id="Movc8tXXRkuTVprkoED4-46" value="&lt;font style=&quot;font-size: 10px&quot;&gt;script &amp;amp; stylesheet&lt;/font&gt;" style="edgeLabel;html=1;align=center;verticalAlign=middle;resizable=0;points=[];fontSize=12;fontFamily=Noto Sans Mono;" vertex="1" connectable="0" parent="Movc8tXXRkuTVprkoED4-45">
          <mxGeometry x="0.1571" y="-1" relative="1" as="geometry">
            <mxPoint x="-1" y="-3" as="offset" />
          </mxGeometry>
        </mxCell>
        <mxCell id="Movc8tXXRkuTVprkoED4-47" style="edgeStyle=orthogonalEdgeStyle;rounded=0;jumpSize=10;orthogonalLoop=1;jettySize=auto;html=1;fontFamily=Noto Sans Mono;fontSource=https%3A%2F%2Ffonts.googleapis.com%2Fcss%3Ffamily%3DNoto%2BSans%2BMono;fontSize=10;endArrow=none;endFill=0;strokeWidth=1;dashed=1;" edge="1" parent="1" source="Movc8tXXRkuTVprkoED4-48">
          <mxGeometry relative="1" as="geometry">
            <mxPoint x="410" y="180" as="targetPoint" />
          </mxGeometry>
        </mxCell>
        <mxCell id="Movc8tXXRkuTVprkoED4-48" value="app-bundle" style="rounded=0;whiteSpace=wrap;html=1;strokeWidth=2;shadow=0;glass=0;sketch=0;fontFamily=Noto Sans Mono;fontSize=15;fontSource=https%3A%2F%2Ffonts.googleapis.com%2Fcss%3Ffamily%3DNoto%2BSans%2BMono;fillColor=#f8cecc;strokeColor=#b85450;" vertex="1" parent="1">
          <mxGeometry x="350" y="200" width="120" height="60" as="geometry" />
        </mxCell>
        <mxCell id="Movc8tXXRkuTVprkoED4-49" value="ActivitiesController" style="shape=process;whiteSpace=wrap;html=1;backgroundOutline=1;rounded=0;fontFamily=Noto Sans Mono;fontSource=https%3A%2F%2Ffonts.googleapis.com%2Fcss%3Ffamily%3DNoto%2BSans%2BMono;fontSize=14;strokeWidth=2;verticalAlign=middle;fillColor=#dae8fc;strokeColor=#6c8ebf;size=0;" vertex="1" parent="1">
          <mxGeometry x="60" y="660" width="240" height="60" as="geometry" />
        </mxCell>
        <mxCell id="Movc8tXXRkuTVprkoED4-50" value="ActivitiesController" style="shape=process;whiteSpace=wrap;html=1;backgroundOutline=1;rounded=0;fontFamily=Noto Sans Mono;fontSource=https%3A%2F%2Ffonts.googleapis.com%2Fcss%3Ffamily%3DNoto%2BSans%2BMono;fontSize=14;strokeWidth=2;verticalAlign=middle;fillColor=#dae8fc;strokeColor=#6c8ebf;size=0;" vertex="1" parent="1">
          <mxGeometry x="50" y="670" width="240" height="60" as="geometry" />
        </mxCell>
        <mxCell id="Movc8tXXRkuTVprkoED4-51" value="&lt;i style=&quot;font-size: 15px;&quot;&gt;Feature&lt;/i&gt;Controller" style="shape=process;whiteSpace=wrap;html=1;backgroundOutline=1;rounded=0;fontFamily=Noto Sans Mono;fontSource=https%3A%2F%2Ffonts.googleapis.com%2Fcss%3Ffamily%3DNoto%2BSans%2BMono;fontSize=15;strokeWidth=2;verticalAlign=middle;fillColor=#dae8fc;strokeColor=#6c8ebf;size=0;" vertex="1" parent="1">
          <mxGeometry x="40" y="680" width="240" height="60" as="geometry" />
        </mxCell>
        <mxCell id="Movc8tXXRkuTVprkoED4-52" style="edgeStyle=orthogonalEdgeStyle;rounded=0;jumpSize=10;orthogonalLoop=1;jettySize=auto;html=1;fontFamily=Noto Sans Mono;fontSource=https%3A%2F%2Ffonts.googleapis.com%2Fcss%3Ffamily%3DNoto%2BSans%2BMono;fontSize=10;endArrow=none;endFill=0;strokeWidth=1;dashed=1;" edge="1" parent="1" source="Movc8tXXRkuTVprkoED4-53">
          <mxGeometry relative="1" as="geometry">
            <mxPoint x="248" y="180" as="targetPoint" />
          </mxGeometry>
        </mxCell>
        <mxCell id="Movc8tXXRkuTVprkoED4-53" value="activites-bundle" style="rounded=0;whiteSpace=wrap;html=1;strokeWidth=2;shadow=0;glass=0;sketch=0;fontFamily=Noto Sans Mono;fontSize=14;fontSource=https%3A%2F%2Ffonts.googleapis.com%2Fcss%3Ffamily%3DNoto%2BSans%2BMono;fillColor=#f8cecc;strokeColor=#b85450;" vertex="1" parent="1">
          <mxGeometry x="160" y="200" width="176" height="60" as="geometry" />
        </mxCell>
        <mxCell id="Movc8tXXRkuTVprkoED4-54" value="activites-bundle" style="rounded=0;whiteSpace=wrap;html=1;strokeWidth=2;shadow=0;glass=0;sketch=0;fontFamily=Noto Sans Mono;fontSize=14;fontSource=https%3A%2F%2Ffonts.googleapis.com%2Fcss%3Ffamily%3DNoto%2BSans%2BMono;fillColor=#f8cecc;strokeColor=#b85450;" vertex="1" parent="1">
          <mxGeometry x="150" y="210" width="176" height="60" as="geometry" />
        </mxCell>
        <mxCell id="Movc8tXXRkuTVprkoED4-55" value="&lt;i style=&quot;font-size: 15px;&quot;&gt;feature&lt;/i&gt;-bundle" style="rounded=0;whiteSpace=wrap;html=1;strokeWidth=2;shadow=0;glass=0;sketch=0;fontFamily=Noto Sans Mono;fontSize=15;fontSource=https%3A%2F%2Ffonts.googleapis.com%2Fcss%3Ffamily%3DNoto%2BSans%2BMono;fillColor=#f8cecc;strokeColor=#b85450;" vertex="1" parent="1">
          <mxGeometry x="140" y="220" width="176" height="60" as="geometry" />
        </mxCell>
      </root>
    </mxGraphModel>
  </diagram>
</mxfile>
